<?xml version="1.0" encoding="UTF-8" standalone="no"?><svg xmlns="http://www.w3.org/2000/svg" xmlns:xlink="http://www.w3.org/1999/xlink" id="Layer_2" data-name="Layer 2" viewBox="0 0 2186.89 427.31" class="w-28 h-auto sm:w-32 md:w-36 lg:w-40 xl:w-44 fill-[#6366F1]"><defs><style>
                        .cls-1 {
                            fill: url(#linear-gradient-8);
      }

                        .cls-2 {
                            fill: url(#linear-gradient-7);
      }

                        .cls-3 {
                            fill: url(#linear-gradient-5);
      }

                        .cls-4 {
                            fill: url(#linear-gradient-6);
      }

                        .cls-5 {
                            fill: url(#linear-gradient-9);
      }

                        .cls-6 {
                            fill: url(#linear-gradient-4);
      }

                        .cls-7 {
                            fill: url(#linear-gradient-3);
      }

                        .cls-8 {
                            fill: url(#linear-gradient-2);
      }

                        .cls-9 {
                            fill: url(#linear-gradient);
      }

                        .cls-10 {
                            fill: #fff;
      }

                        .cls-11 {
                            fill: url(#linear-gradient-10);
      }

                        .cls-12 {
                            fill: #9275e0;
      }
                        </style><linearGradient id="linear-gradient" x1="104.19" y1="201.54" x2="41.23" y2="438.55" gradientUnits="userSpaceOnUse"><stop offset="0" stop-color="#9275e0"/><stop offset="1" stop-color="#6c43d0"/></linearGradient><linearGradient id="linear-gradient-2" x1="204.7" y1="-55.31" x2="134.62" y2="143.16" xlink:href="#linear-gradient"/><linearGradient id="linear-gradient-3" x1="251.83" y1="132.05" x2="353.67" y2="474.6" xlink:href="#linear-gradient"/><linearGradient id="linear-gradient-4" x1="272.65" y1="209.35" x2="198.69" y2="7.35" xlink:href="#linear-gradient"/><linearGradient id="linear-gradient-5" x1="247.77" y1="-2211.87" x2="374.23" y2="-2211.87" gradientTransform="translate(0 -1958.56) scale(1 -1)" xlink:href="#linear-gradient"/><linearGradient id="linear-gradient-6" x1="45.75" y1="-2241.57" x2="52.05" y2="-2101.4" gradientTransform="translate(0 -1958.56) scale(1 -1)" xlink:href="#linear-gradient"/><linearGradient id="linear-gradient-7" x1="90.28" y1="-2249.12" x2="309.59" y2="-2098.69" gradientTransform="translate(0 -1958.56) scale(1 -1)" xlink:href="#linear-gradient"/><linearGradient id="linear-gradient-8" x1="224.23" y1="-2077.01" x2="381.12" y2="-2154.21" gradientTransform="translate(0 -1958.56) scale(1 -1)" xlink:href="#linear-gradient"/><linearGradient id="linear-gradient-9" x1="181.41" y1="-2160.22" x2="76.28" y2="-2101.95" gradientTransform="translate(0 -1958.56) scale(1 -1)" xlink:href="#linear-gradient"/><linearGradient id="linear-gradient-10" x1="204.87" y1="-2162.59" x2="55.11" y2="-2277.8" gradientTransform="translate(0 -1958.56) scale(1 -1)" xlink:href="#linear-gradient"/></defs><g id="Layer_1-2" data-name="Layer 1"><g><g><path class="cls-10" d="M458.75,105.03c0-60.76,46.65-104.25,109.43-104.25,34.84,0,63.93,12.67,82.94,35.71l-29.95,27.65c-13.54-15.55-30.53-23.61-50.68-23.61-37.72,0-64.51,26.49-64.51,64.51s26.78,64.51,64.51,64.51c20.16,0,37.15-8.06,50.68-23.9l29.95,27.65c-19.01,23.33-48.09,36-83.22,36-62.49,0-109.14-43.48-109.14-104.24Z"/><path class="cls-10" d="M811.22,162.63h-93.59l-17.85,43.2h-47.8L741.82,4.24h46.08l90.13,201.58h-48.96l-17.85-43.2ZM796.53,127.2l-31.97-77.18-31.96,77.18h63.93Z"/><path class="cls-10" d="M1027.48,205.82l-38.88-56.15h-42.91v56.15h-46.65V4.24h87.26c53.85,0,87.54,27.93,87.54,73.15,0,30.24-15.26,52.41-41.47,63.64l45.21,64.79h-50.11ZM983.71,42.25h-38.01v70.27h38.01c28.51,0,42.91-13.25,42.91-35.13s-14.4-35.13-42.91-35.13Z"/><path class="cls-10" d="M1266.78,168.38v37.44h-156.08V4.24h152.34v37.44h-105.97v43.77h93.59v36.29h-93.59v46.65h109.72Z"/><path class="cls-10" d="M1460.01,168.38v37.44h-156.08V4.24h152.34v37.44h-105.97v43.77h93.59v36.29h-93.59v46.65h109.72Z"/><path class="cls-10" d="M1625.59,205.82l-38.88-56.15h-42.91v56.15h-46.65V4.24h87.26c53.85,0,87.54,27.93,87.54,73.15,0,30.24-15.26,52.41-41.47,63.64l45.21,64.79h-50.11ZM1581.81,42.25h-38.01v70.27h38.01c28.51,0,42.91-13.25,42.91-35.13s-14.4-35.13-42.91-35.13Z"/><path class="cls-10" d="M587.12,383.11h-89.32l-19.24,42.83h-17.64l73.29-160.32h16.72l73.29,160.32h-17.86l-19.24-42.83ZM580.94,369.37l-38.48-86.12-38.48,86.12h76.96Z"/><path class="cls-10" d="M634.3,345.78c0-46.95,35.73-81.54,84.06-81.54,23.36,0,44.43,7.79,58.63,23.36l-10.77,10.77c-13.05-13.28-29.09-19.01-47.41-19.01-38.71,0-67.79,28.4-67.79,66.42s29.09,66.42,67.79,66.42c18.32,0,34.35-5.73,47.41-19.24l10.77,10.76c-14.2,15.58-35.27,23.59-58.86,23.59-48.1,0-83.83-34.58-83.83-81.54Z"/><path class="cls-10" d="M795.54,345.78c0-46.95,35.73-81.54,84.06-81.54,23.36,0,44.43,7.79,58.63,23.36l-10.77,10.77c-13.05-13.28-29.09-19.01-47.41-19.01-38.71,0-67.79,28.4-67.79,66.42s29.09,66.42,67.79,66.42c18.32,0,34.35-5.73,47.41-19.24l10.77,10.76c-14.2,15.58-35.27,23.59-58.86,23.59-48.1,0-83.83-34.58-83.83-81.54Z"/><path class="cls-10" d="M1087.78,411.28v14.66h-113.37v-160.32h109.94v14.66h-92.99v57.03h82.91v14.43h-82.91v59.55h96.42Z"/><path class="cls-10" d="M1127.63,265.62h16.95v145.67h89.78v14.66h-106.73v-160.32Z"/><path class="cls-10" d="M1375.9,411.28v14.66h-113.37v-160.32h109.94v14.66h-92.99v57.03h82.91v14.43h-82.91v59.55h96.42Z"/><path class="cls-10" d="M1525.22,425.94l-36.65-51.53c-4.12.46-8.24.69-12.83.69h-43.06v50.85h-16.95v-160.32h60.01c40.77,0,65.5,20.61,65.5,54.97,0,25.19-13.28,42.83-36.65,50.39l39.17,54.97h-18.55ZM1524.31,320.58c0-25.65-16.95-40.31-49.01-40.31h-42.6v80.39h42.6c32.06,0,49.01-14.89,49.01-40.08Z"/><path class="cls-10" d="M1681.88,383.11h-89.32l-19.24,42.83h-17.64l73.29-160.32h16.72l73.29,160.32h-17.86l-19.24-42.83ZM1675.69,369.37l-38.48-86.12-38.48,86.12h76.96Z"/><path class="cls-10" d="M1768.68,280.27h-56.34v-14.66h129.63v14.66h-56.34v145.67h-16.95v-145.67Z"/><path class="cls-10" d="M1852.5,345.78c0-46.72,35.73-81.54,84.28-81.54s84.06,34.58,84.06,81.54-35.96,81.54-84.06,81.54-84.28-34.81-84.28-81.54ZM2003.89,345.78c0-38.25-28.63-66.42-67.11-66.42s-67.56,28.17-67.56,66.42,28.86,66.42,67.56,66.42,67.11-28.17,67.11-66.42Z"/><path class="cls-10" d="M2168.34,425.94l-36.65-51.53c-4.12.46-8.24.69-12.83.69h-43.06v50.85h-16.95v-160.32h60.01c40.77,0,65.5,20.61,65.5,54.97,0,25.19-13.28,42.83-36.65,50.39l39.17,54.97h-18.55ZM2167.42,320.58c0-25.65-16.95-40.31-49.01-40.31h-42.6v80.39h42.6c32.06,0,49.01-14.89,49.01-40.08Z"/></g><g><path class="cls-9" d="M97.41,320.5l-35.52,105.81H19.67l37.09-110.48c7.73,2.58,15.81,4.19,24.09,4.78.9.08,1.8.12,2.7.15l.07.52,9.43-.54c.24,0,.47-.02.71-.03l3.65-.22Z"/><path class="cls-8" d="M204.98,0l-13.91,41.45h0s-36.23,107.92-36.23,107.92c-.62-.53-1.21-1.05-1.8-1.54-1.81-1.55-3.48-2.92-5.07-4.15-8.65-6.71-18.18-11.82-28.32-15.24L162.76,0h42.22Z"/><path class="cls-7" d="M362.45,426.31h-42.21l-35.44-105.58c2.23.15,4.46.23,6.71.23,1.88,0,3.73-.06,5.6-.15,9.59-.54,19.01-2.46,28.02-5.68l37.32,111.19Z"/><path class="cls-6" d="M262.15,127.51c-12.58,3.98-24.4,10.78-35.37,20.37l-35.72-106.42h0S204.98,0,204.98,0h14.38l42.8,127.51Z"/><g><path class="cls-3" d="M339.88,295.72c-31.18,20.08-71.85,19.12-100.93-3.7-4.79-3.77-10.24-8.6-15.85-13.81l24.17-22.64c2.84,2.84,5.55,5.41,7.98,7.56,17.76,15.7,38.46,18.44,60.2,8.7,20.67-9.26,33.06-30.12,31.5-52.69-.54-7.83-2.24-14.88-5.08-21.1l34.18-1.43c.62,1.99,1.17,4.01,1.68,6.08,8.73,35.42-6.75,73-37.85,93.03Z"/><path class="cls-4" d="M93.11,309.77c-28.25,1.65-56.69-10.35-75.53-35.17-26.32-34.69-22.74-83.76,8.39-114.48,14.93-14.73,34-23.3,53.62-25.31l.64,32.83c-5.05.88-10.19,2.49-15.39,4.79-20.29,9.02-32.76,29.8-31.86,51.59.93,22.71,14.87,42.16,36.3,49.64,6.73,2.34,13.21,3.55,19.47,3.64l4.36,32.46h0Z"/><path class="cls-12" d="M247.26,255.56l-24.17,22.64c-9.68-8.98-19.83-19.06-27.89-26.64,8.34-8.31,15.54-15.46,24.94-24.84,7.29,7.91,17.9,19.66,27.12,28.84Z"/><path class="cls-2" d="M342.65,150.19c-22.85-6.99-47.58,4.35-68.27,19.44-8.18,2.84-15.85,7.86-22.94,14.88-33.49,33.07-66.61,66.51-100.35,99.32-16.65,16.19-37.26,24.73-57.96,25.93l-4.36-32.46c14.72.23,28.08-5.71,39.92-17.36,33.78-33.26,67.03-67.06,101.15-99.98,24.51-23.66,54.16-31.31,87.12-21.58,9.66,2.86,18.24,6.8,25.73,11.8h-.03Z"/><path class="cls-1" d="M376.05,196.6l-34.18,1.43c-5.75-12.63-16.19-21.9-31.14-27.37-12.97-4.74-25.14-4.93-36.35-1.03,20.7-15.1,45.42-26.43,68.27-19.44,16.13,10.77,27.27,26.4,33.4,46.4h0Z"/><path class="cls-5" d="M185.7,194.19c-8.37,7.56-16.09,14.53-26.11,23.59-6.58-7.15-18.02-20.22-27.62-29.89-2.47-2.49-4.81-4.75-6.93-6.62-13.51-11.99-28.71-16.44-44.81-13.61l-.64-32.83c21.47-2.19,43.6,3.48,61.67,17.51,4.73,3.67,10.17,8.58,15.79,13.92,9.98,9.48,20.54,20.31,28.65,27.94h.01Z"/><path class="cls-11" d="M151.35,237.49c-7.47,7.43-15.16,14.64-22.65,22.03-7.1,7.01-14.8,12.28-22.99,15.13-20.7,15.1-45.38,26.18-68.24,19.2,7.49,5,16.07,8.95,25.73,11.8,32.96,9.74,62.6,2.07,87.12-21.58,7.33-7.07,14.62-14.2,21.89-21.34-6.47-9.02-12.83-17.82-20.86-25.24h0Z"/></g></g></g></g></svg>