<svg width="470" height="183" viewBox="0 0 470 183" fill="none" xmlns="http://www.w3.org/2000/svg">
<path d="M90.8333 40.6665L40 101.667H85.75L80.6667 142.333L131.5 81.3332H85.75L90.8333 40.6665Z" fill="black"/>
<path d="M203.468 83.1866V102.004H176.326V127.777H155V51.3687H209.17V70.1857H176.326V83.1866H203.468Z" fill="black"/>
<path d="M238.913 51.3687V127.777H219.297V51.3687H238.913Z" fill="black"/>
<path d="M271.278 67.9049C274.319 67.9049 277.284 68.5891 280.173 69.9576C283.139 71.2501 285.571 72.9228 287.472 74.9755V69.6155H307.088V127.777H287.472V118.084C286.028 121.277 283.823 123.976 280.858 126.181C277.893 128.386 274.319 129.488 270.138 129.488C265.804 129.488 261.736 128.386 257.935 126.181C254.134 123.976 251.016 120.593 248.584 116.031C246.227 111.393 245.048 105.577 245.048 98.5824C245.048 92.0439 246.227 86.4938 248.584 81.9321C251.016 77.3704 254.21 73.9111 258.163 71.5542C262.193 69.1213 266.564 67.9049 271.278 67.9049ZM275.384 87.0641C272.571 87.0641 270.214 88.2045 268.313 90.4853C266.488 92.7662 265.576 95.4652 265.576 98.5824C265.576 101.7 266.526 104.323 268.427 106.451C270.328 108.58 272.837 109.645 275.954 109.645C277.626 109.645 279.337 109.226 281.086 108.39C282.834 107.478 284.317 106.147 285.533 104.399C286.826 102.574 287.472 100.255 287.472 97.442V91.8539C285.8 90.4853 283.899 89.3449 281.77 88.4326C279.717 87.5202 277.588 87.0641 275.384 87.0641Z" fill="black"/>
<path d="M337.514 67.9049C341.316 67.9049 344.813 68.4751 348.006 69.6155C351.275 70.6799 353.898 72.1625 355.875 74.0632V89.459C353.898 88.2425 351.655 87.1021 349.147 86.0377C346.638 84.8973 343.939 84.327 341.049 84.327C339.225 84.327 337.59 84.7072 336.146 85.4675C334.777 86.1517 334.093 87.2541 334.093 88.7747C334.093 89.8391 334.511 90.6374 335.347 91.1696C336.184 91.7018 337.818 92.272 340.251 92.8802L343.786 93.7926C353.898 96.3776 358.954 101.814 358.954 110.101C358.954 113.902 357.814 117.285 355.533 120.251C353.328 123.14 350.401 125.42 346.752 127.093C343.178 128.69 339.301 129.488 335.119 129.488C330.786 129.488 326.756 128.88 323.031 127.663C319.305 126.371 316.112 124.812 313.451 122.988V107.706C316.188 109.378 319.267 110.785 322.689 111.925C326.186 113.066 329.303 113.636 332.04 113.636C334.245 113.636 335.842 113.37 336.83 112.838C337.894 112.306 338.426 111.355 338.426 109.987C338.426 108.922 337.818 108.124 336.602 107.592C335.385 106.984 333.637 106.299 331.356 105.539L325.54 103.714C321.282 102.422 318.165 100.407 316.188 97.67C314.211 94.857 313.223 91.4357 313.223 87.4062C313.223 83.3767 314.287 79.9174 316.416 77.0283C318.545 74.1392 321.434 71.8964 325.083 70.2998C328.809 68.7032 332.952 67.9049 337.514 67.9049Z" fill="black"/>
<path d="M399.417 67.9049C405.347 67.9049 410.175 69.9196 413.9 73.9491C417.701 77.9786 419.602 83.9469 419.602 91.8539V127.777H399.987L399.873 94.933C399.873 92.0439 399.074 90.0292 397.478 88.8887C395.881 87.6723 394.095 87.0641 392.118 87.0641C389.989 87.0641 388.202 87.6343 386.758 88.7747C385.313 89.8391 384.059 91.1316 382.994 92.6522V127.777H363.379V51.3686H382.994V77.1423C384.819 74.6334 387.024 72.4666 389.609 70.6419C392.27 68.8172 395.539 67.9049 399.417 67.9049Z" fill="black"/>
<path d="M418.615 51.8136V54.24H415.694V61.6224H412.921V54.24H410V51.8136H418.615Z" fill="black"/>
<path d="M430 51.6665V61.6665H427.227V56.8136L425.196 59.093H424.365L422.334 56.8136V61.6665H419.561V51.6665H420.54L424.781 55.9312L429.021 51.6665H430Z" fill="black"/>
</svg>
