<svg width="470" height="182" viewBox="0 0 470 182" fill="none" xmlns="http://www.w3.org/2000/svg">
<path d="M90.8333 40.333L40 101.333H85.75L80.6667 142L131.5 80.9997H85.75L90.8333 40.333Z" fill="white"/>
<path d="M203.468 82.8531V101.67H176.326V127.444H155V51.0352H209.17V69.8522H176.326V82.8531H203.468Z" fill="white"/>
<path d="M238.913 51.0352V127.444H219.297V51.0352H238.913Z" fill="white"/>
<path d="M271.278 67.5714C274.319 67.5714 277.284 68.2556 280.173 69.6241C283.139 70.9166 285.571 72.5893 287.472 74.642V69.282H307.088V127.444H287.472V117.75C286.028 120.943 283.823 123.642 280.858 125.847C277.893 128.052 274.319 129.155 270.138 129.155C265.804 129.155 261.736 128.052 257.935 125.847C254.134 123.642 251.016 120.259 248.584 115.697C246.227 111.06 245.048 105.244 245.048 98.2489C245.048 91.7104 246.227 86.1604 248.584 81.5986C251.016 77.0369 254.21 73.5776 258.163 71.2207C262.193 68.7878 266.564 67.5714 271.278 67.5714ZM275.384 86.7306C272.571 86.7306 270.214 87.871 268.313 90.1519C266.488 92.4327 265.576 95.1317 265.576 98.2489C265.576 101.366 266.526 103.989 268.427 106.118C270.328 108.247 272.837 109.311 275.954 109.311C277.626 109.311 279.337 108.893 281.086 108.057C282.834 107.144 284.317 105.814 285.533 104.065C286.826 102.24 287.472 99.9215 287.472 97.1085V91.5204C285.8 90.1518 283.899 89.0114 281.77 88.0991C279.717 87.1867 277.588 86.7306 275.384 86.7306Z" fill="white"/>
<path d="M337.514 67.5714C341.316 67.5714 344.813 68.1416 348.006 69.282C351.275 70.3464 353.898 71.829 355.875 73.7297V89.1255C353.898 87.909 351.655 86.7686 349.147 85.7042C346.638 84.5638 343.939 83.9935 341.049 83.9935C339.225 83.9935 337.59 84.3737 336.146 85.134C334.777 85.8182 334.093 86.9206 334.093 88.4412C334.093 89.5056 334.511 90.3039 335.347 90.8361C336.184 91.3683 337.818 91.9385 340.251 92.5467L343.786 93.4591C353.898 96.0441 358.954 101.48 358.954 109.767C358.954 113.569 357.814 116.952 355.533 119.917C353.328 122.806 350.401 125.087 346.752 126.76C343.178 128.356 339.301 129.155 335.119 129.155C330.786 129.155 326.756 128.546 323.031 127.33C319.305 126.037 316.112 124.479 313.451 122.654V107.372C316.188 109.045 319.267 110.451 322.689 111.592C326.186 112.732 329.303 113.303 332.04 113.303C334.245 113.303 335.842 113.036 336.83 112.504C337.894 111.972 338.426 111.022 338.426 109.653C338.426 108.589 337.818 107.79 336.602 107.258C335.385 106.65 333.637 105.966 331.356 105.206L325.54 103.381C321.282 102.088 318.165 100.074 316.188 97.3365C314.211 94.5235 313.223 91.1022 313.223 87.0727C313.223 83.0432 314.287 79.5839 316.416 76.6948C318.545 73.8057 321.434 71.5629 325.083 69.9663C328.809 68.3697 332.952 67.5714 337.514 67.5714Z" fill="white"/>
<path d="M399.417 67.5714C405.347 67.5714 410.175 69.5861 413.9 73.6156C417.701 77.6452 419.602 83.6134 419.602 91.5204V127.444H399.987L399.873 94.5995C399.873 91.7104 399.074 89.6957 397.478 88.5552C395.881 87.3388 394.095 86.7306 392.118 86.7306C389.989 86.7306 388.202 87.3008 386.758 88.4412C385.313 89.5056 384.059 90.7981 382.994 92.3187V127.444H363.379V51.0351H382.994V76.8088C384.819 74.2999 387.024 72.1331 389.609 70.3084C392.27 68.4837 395.539 67.5714 399.417 67.5714Z" fill="white"/>
<path d="M418.615 51.4801V53.9065H415.694V61.2889H412.921V53.9065H410V51.4801H418.615Z" fill="white"/>
<path d="M430 51.333V61.333H427.227V56.4801L425.196 58.7595H424.365L422.334 56.4801V61.333H419.561V51.333H420.54L424.781 55.5977L429.021 51.333H430Z" fill="white"/>
</svg>
