<svg width="409" height="178" viewBox="0 0 409 178" fill="none" xmlns="http://www.w3.org/2000/svg">
<path d="M168.511 71.7653V127.265H154.992V104.417H133.962V127.265H120.443V71.7653H133.962V93.5064H154.992V71.7653H168.511Z" fill="white"/>
<path d="M181.907 78.5643C179.535 78.5643 177.585 77.8792 176.057 76.5088C174.581 75.0858 173.843 73.3465 173.843 71.2909C173.843 69.1827 174.581 67.4434 176.057 66.0731C177.585 64.65 179.535 63.9385 181.907 63.9385C184.226 63.9385 186.124 64.65 187.599 66.0731C189.128 67.4434 189.892 69.1827 189.892 71.2909C189.892 73.3465 189.128 75.0858 187.599 76.5088C186.124 77.8792 184.226 78.5643 181.907 78.5643ZM188.627 83.1498V127.265H175.108V83.1498H188.627Z" fill="white"/>
<path d="M219.849 115.801V127.265H212.971C208.069 127.265 204.248 126.079 201.508 123.707C198.767 121.282 197.397 117.356 197.397 111.927V94.3761H192.021V83.1498H197.397V72.3978H210.916V83.1498H219.77V94.3761H210.916V112.085C210.916 113.403 211.232 114.352 211.864 114.931C212.497 115.511 213.551 115.801 215.027 115.801H219.849Z" fill="white"/>
<path d="M265.802 104.496C265.802 105.761 265.723 107.078 265.565 108.449H234.969C235.18 111.189 236.05 113.297 237.578 114.773C239.159 116.196 241.083 116.908 243.349 116.908C246.723 116.908 249.068 115.485 250.386 112.639H264.774C264.036 115.537 262.692 118.146 260.742 120.465C258.845 122.785 256.447 124.603 253.548 125.921C250.649 127.238 247.408 127.897 243.824 127.897C239.502 127.897 235.654 126.975 232.281 125.13C228.908 123.285 226.273 120.65 224.375 117.224C222.478 113.798 221.529 109.793 221.529 105.207C221.529 100.622 222.452 96.6161 224.296 93.1902C226.194 89.7643 228.829 87.129 232.202 85.2843C235.575 83.4396 239.449 82.5173 243.824 82.5173C248.093 82.5173 251.888 83.4133 255.208 85.2053C258.529 86.9973 261.111 89.5535 262.956 92.874C264.853 96.1944 265.802 100.068 265.802 104.496ZM251.967 100.938C251.967 98.6189 251.176 96.7742 249.595 95.4039C248.014 94.0335 246.037 93.3483 243.666 93.3483C241.399 93.3483 239.476 94.0072 237.894 95.3248C236.366 96.6424 235.417 98.5135 235.048 100.938H251.967Z" fill="white"/>
<path d="M267.084 105.207C267.084 100.622 268.006 96.6161 269.851 93.1902C271.748 89.7643 274.357 87.129 277.678 85.2843C281.051 83.4396 284.898 82.5173 289.22 82.5173C294.754 82.5173 299.366 83.9667 303.055 86.8655C306.798 89.7643 309.248 93.849 310.408 99.1196H296.019C294.807 95.7464 292.462 94.0599 288.983 94.0599C286.506 94.0599 284.529 95.0349 283.054 96.985C281.578 98.8824 280.84 101.623 280.84 105.207C280.84 108.791 281.578 111.558 283.054 113.508C284.529 115.406 286.506 116.354 288.983 116.354C292.462 116.354 294.807 114.668 296.019 111.295H310.408C309.248 116.46 306.798 120.518 303.055 123.47C299.313 126.421 294.702 127.897 289.22 127.897C284.898 127.897 281.051 126.975 277.678 125.13C274.357 123.285 271.748 120.65 269.851 117.224C268.006 113.798 267.084 109.793 267.084 105.207Z" fill="white"/>
<path d="M341.594 82.6754C346.654 82.6754 350.712 84.362 353.769 87.7352C356.826 91.0556 358.355 95.641 358.355 101.491V127.265H344.915V103.31C344.915 100.358 344.15 98.0655 342.622 96.4316C341.093 94.7977 339.038 93.9808 336.455 93.9808C333.873 93.9808 331.817 94.7977 330.289 96.4316C328.76 98.0655 327.996 100.358 327.996 103.31V127.265H314.477V68.7611H327.996V89.0792C329.366 87.129 331.237 85.5742 333.609 84.4147C335.981 83.2552 338.643 82.6754 341.594 82.6754Z" fill="white"/>
<path d="M50.4434 98.2543L50.4434 50.2646H66.4434L66.4434 74.9336C69.2359 73.8557 72.2706 73.2646 75.4434 73.2646C89.2505 73.2646 100.443 84.4575 100.443 98.2646V127.265H84.4434V98.2646C84.4434 93.2941 80.4139 89.2646 75.4434 89.2646C70.475 89.2646 66.4469 93.2905 66.4434 98.258C66.4434 98.2602 66.4434 98.2624 66.4434 98.2646L66.4434 127.265H50.4434L50.4434 98.2646C50.4434 98.2612 50.4434 98.2577 50.4434 98.2543Z" fill="white"/>
<path d="M84.4434 66.2646V50.2646H100.443V66.2646L84.4434 66.2646Z" fill="white"/>
</svg>
