<svg width="633" height="90" viewBox="0 0 633 90" fill="none" xmlns="http://www.w3.org/2000/svg">
<g clip-path="url(#clip0_1124_1551)">
<path d="M120.727 72.6927V47.3354C120.727 39.7036 123.213 33.7951 132.08 33.7951C135.643 33.7951 138.626 35.0261 140.615 38.0624C142.459 41.0007 142.519 43.7854 142.521 47.0857L142.521 72.6927H151.139V47.3354C151.139 39.8677 153.127 33.7951 162.077 33.7951C170.529 33.7951 172.932 40.2781 172.932 47.4175V72.6927H181.55V45.2839C181.55 33.5489 175.004 25.9992 162.822 25.9992C156.11 25.9992 151.221 28.0508 147.658 33.631C145.255 28.5431 138.792 25.9992 133.406 25.9992C127.356 25.9992 124.042 27.7225 120.23 32.1539H120.064V27.2301H112.109V72.6927H120.727ZM211.299 73.8416C225.22 73.8416 236.075 62.7631 236.075 49.7973C236.075 36.3391 224.723 25.9992 211.299 25.9992C198.041 25.9992 186.522 36.257 186.522 49.6332C186.522 63.0914 197.792 73.8416 211.299 73.8416ZM211.299 66.0456C202.35 66.0456 195.14 58.7421 195.14 49.8794C195.14 41.0166 202.35 33.7951 211.299 33.7951C220.248 33.7951 227.457 40.9346 227.457 49.7973C227.457 58.66 220.331 66.0456 211.299 66.0456ZM249.749 72.6927V47.9099C249.749 40.2781 253.395 33.7951 261.847 33.7951C270.962 33.7951 273.282 40.2781 273.282 47.9919V72.6927H281.9V45.7762C281.9 41.7552 281.237 37.57 279 34.1234C275.437 28.5431 269.305 25.9992 262.758 25.9992C257.455 25.9992 252.649 27.7225 249.334 32.0718H249.169V27.2301H241.131V72.6927H249.749ZM311.649 73.8416C325.57 73.8416 336.426 62.7631 336.426 49.7973C336.426 36.3391 325.073 25.9992 311.649 25.9992C298.391 25.9992 286.873 36.257 286.873 49.6332C286.873 63.0914 298.142 73.8416 311.649 73.8416ZM311.649 66.0456C302.7 66.0456 295.491 58.7421 295.491 49.8794C295.491 41.0166 302.7 33.7951 311.649 33.7951C320.599 33.7951 327.808 40.9346 327.808 49.7973C327.808 58.66 320.681 66.0456 311.649 66.0456ZM362.694 73.8416C373.218 73.8416 381.919 67.4407 385.316 57.6753H375.704C373.301 62.9273 368.578 66.0456 362.694 66.0456C353.496 66.0456 347.779 58.4959 347.779 49.8794C347.779 40.9346 353.414 33.7951 362.86 33.7951C368.992 33.7951 373.218 36.9956 375.787 42.3296H385.316C382.748 32.5642 372.638 25.9992 362.777 25.9992C349.188 25.9992 339.161 36.5853 339.161 49.8794C339.161 63.1735 349.022 73.8416 362.694 73.8416ZM397.167 72.6927V47.9099C397.167 40.2781 400.813 33.7951 409.265 33.7951C418.38 33.7951 420.7 40.2781 420.7 47.9919V72.6927H429.318V45.7762C429.318 41.7552 428.655 37.57 426.418 34.1234C422.855 28.5431 416.723 25.9992 410.176 25.9992C405.039 25.9992 400.316 27.6405 397.332 32.0718H397.167V11.9666H388.549V72.6927H397.167ZM445.146 72.6927V47.8278C445.146 43.7247 446.14 38.4727 450.201 36.4211C451.858 35.5184 454.51 34.7799 456.416 34.7799V25.9992C451.775 26.1633 447.549 27.3943 444.732 31.3333H444.566V27.2301H436.528V72.6927H445.146ZM481.11 73.8416C495.031 73.8416 505.886 62.7631 505.886 49.7973C505.886 36.3391 494.534 25.9992 481.11 25.9992C467.852 25.9992 456.333 36.257 456.333 49.6332C456.333 63.0914 467.603 73.8416 481.11 73.8416ZM481.11 66.0456C472.161 66.0456 464.951 58.7421 464.951 49.8794C464.951 41.0166 472.161 33.7951 481.11 33.7951C490.059 33.7951 497.268 40.9346 497.268 49.7973C497.268 58.66 490.142 66.0456 481.11 66.0456ZM519.643 72.6927V47.3354C519.643 39.7036 522.129 33.7951 530.995 33.7951C534.558 33.7951 537.541 35.0261 539.53 38.0624C541.436 41.0987 541.436 43.9709 541.436 47.4175V72.6927H550.054V47.3354C550.054 39.8677 552.043 33.7951 560.992 33.7951C569.444 33.7951 571.847 40.2781 571.847 47.4175V72.6927H580.465V45.2839C580.465 33.5489 573.919 25.9992 561.738 25.9992C555.026 25.9992 550.137 28.0508 546.574 33.631C544.17 28.5431 537.707 25.9992 532.321 25.9992C526.272 25.9992 522.957 27.7225 519.145 32.1539H518.98V27.2301H511.025V72.6927H519.643ZM608.888 73.8416C618.915 73.8416 627.45 67.6869 630.93 58.4138H622.312C619.826 63.1735 614.606 66.0456 609.22 66.0456C601.679 66.0456 595.879 60.7116 594.138 53.6542H632.173C632.339 52.2592 632.422 50.782 632.422 49.387C632.422 36.5853 622.064 25.9992 609.054 25.9992C595.63 25.9992 585.521 36.7494 585.521 49.8794C585.521 62.599 595.796 73.8416 608.888 73.8416ZM623.804 47.0892H594.138C594.636 39.6216 601.513 33.7951 608.971 33.7951C616.429 33.7951 623.307 39.6216 623.804 47.0892Z" fill="white"/>
<path fill-rule="evenodd" clip-rule="evenodd" d="M45 -0.00488281C69.8528 -0.00488281 90 20.1423 90 44.9951C90 69.8479 69.8528 89.9951 45 89.9951C20.1472 89.9951 0 69.8479 0 44.9951C0 20.1423 20.1472 -0.00488281 45 -0.00488281ZM45.0028 6.91819L45 27.6874C35.4412 27.6874 27.6923 35.4363 27.6923 44.9951C27.6923 54.5539 35.4412 62.3028 45 62.3028V83.0707L45.8739 83.0622C66.4996 82.5977 83.0769 65.7323 83.0769 44.9951C83.0769 23.9668 66.0308 6.91972 45.0028 6.91819ZM45 28.1201C54.3198 28.1201 61.875 35.6753 61.875 44.9951C61.875 54.1031 54.6593 61.5258 45.6326 61.8585L45 61.8701V28.1201Z" fill="white"/>
</g>
<defs>
<clipPath id="clip0_1124_1551">
<rect width="632.812" height="90" fill="white" transform="translate(0 -0.00488281)"/>
</clipPath>
</defs>
</svg>
