<?xml version="1.0" encoding="utf-8"?>
<!-- Generator: Adobe Illustrator 27.5.0, SVG Export Plug-In . SVG Version: 6.00 Build 0)  -->
<svg version="1.1" id="Capa_1" xmlns="http://www.w3.org/2000/svg" xmlns:xlink="http://www.w3.org/1999/xlink" x="0px" y="0px"
	 viewBox="0 0 1898 2372" style="enable-background:new 0 0 1898 2372;" xml:space="preserve">
<path style="fill:#E2F3FE;" d="M1516.115,1449.607l-212.835-261.092c5.02-40.491,8.427-81.661,9.827-123.274
	c8.601-255.611-60.543-494.674-141.765-674.006l-0.008-0.016c-13.392-29.57-27.108-57.519-40.865-83.647l-0.008-0.017
	c-1.917-3.641-3.835-7.22-5.752-10.79c-0.602-1.119-1.204-2.252-1.806-3.363c-1.784-3.304-3.568-6.556-5.351-9.794
	c-0.73-1.327-1.458-2.656-2.187-3.971c-1.743-3.14-3.483-6.246-5.224-9.326c-0.749-1.324-1.496-2.642-2.245-3.955
	c-1.74-3.061-3.481-6.098-5.218-9.094c-0.703-1.214-1.403-2.41-2.106-3.611c-1.805-3.091-3.606-6.166-5.403-9.19
	c-0.506-0.847-1.008-1.675-1.512-2.519c-8.609-14.4-17.123-27.996-25.474-40.742c-0.49-0.752-0.986-1.517-1.477-2.261
	c-1.705-2.593-3.398-5.123-5.09-7.642c-0.705-1.049-1.411-2.106-2.114-3.143c-1.601-2.37-3.194-4.693-4.782-6.994
	c-0.771-1.117-1.539-2.228-2.307-3.328c-1.544-2.217-3.077-4.406-4.606-6.559c-0.784-1.105-1.563-2.192-2.342-3.279
	c-1.512-2.111-3.02-4.205-4.513-6.248c-0.751-1.029-1.495-2.027-2.241-3.039c-1.517-2.054-3.032-4.107-4.529-6.093
	c-0.575-0.765-1.139-1.493-1.714-2.247c-5.093-6.706-10.058-12.997-14.887-18.877c-0.795-0.969-1.596-1.961-2.383-2.906
	c-1.202-1.444-2.381-2.827-3.565-4.216c-0.901-1.063-1.806-2.13-2.699-3.16c-1.117-1.291-2.217-2.535-3.314-3.775
	c-0.929-1.051-1.855-2.092-2.773-3.107c-1.046-1.16-2.083-2.294-3.113-3.408c-0.945-1.021-1.879-2.015-2.811-2.999
	c-0.975-1.029-1.944-2.051-2.9-3.037c-0.967-0.994-1.915-1.944-2.863-2.895c-0.891-0.89-1.787-1.797-2.661-2.65
	c-1.038-1.013-2.048-1.958-3.061-2.911c-0.749-0.706-1.514-1.446-2.25-2.122c-1.686-1.545-3.339-3.012-4.951-4.39
	c-0.515-0.438-1-0.817-1.506-1.239c-1.139-0.948-2.272-1.888-3.369-2.748c-0.626-0.49-1.226-0.924-1.839-1.387
	c-0.635-0.479-1.286-0.991-1.906-1.438l0.006-0.006l-0.082-0.052l-0.8-0.556c-0.624-0.438-1.226-0.839-1.833-1.244
	c-0.858-0.575-1.705-1.128-2.53-1.637c-0.588-0.362-1.166-0.702-1.74-1.032c-0.803-0.463-1.588-0.891-2.358-1.286
	c-0.539-0.278-1.076-0.55-1.599-0.795l-0.577-0.288l-0.168-0.082c-0.518-0.231-1-0.389-1.501-0.586l-1.4-0.539
	c-0.512-0.175-1-0.305-1.492-0.441l-0.956-0.248l-0.888-0.22c-1.054-0.196-2.067-0.316-3.012-0.316c-0.945,0-1.956,0.12-3.013,0.316
	l-1.089,0.278c-0.732,0.177-1.468,0.368-2.247,0.632l-1.4,0.539c-0.735,0.289-1.477,0.597-2.247,0.956
	c-0.523,0.245-1.06,0.518-1.599,0.795c-0.77,0.395-1.555,0.823-2.358,1.286c-0.572,0.33-1.15,0.67-1.74,1.032
	c-0.823,0.509-1.669,1.063-2.525,1.637c-0.61,0.406-1.214,0.806-1.841,1.247c-0.902,0.638-1.833,1.335-2.767,2.038
	c-0.619,0.466-1.223,0.907-1.855,1.4c-1.092,0.858-2.222,1.795-3.355,2.738c-0.509,0.424-1,0.806-1.517,1.247
	c-1.61,1.378-3.265,2.846-4.951,4.39c-0.741,0.681-1.512,1.427-2.268,2.138c-1.005,0.948-2.005,1.885-3.034,2.887
	c-0.88,0.861-1.784,1.773-2.682,2.675c-0.943,0.942-1.885,1.888-2.846,2.879c-0.956,0.983-1.928,2.007-2.903,3.037
	c-0.929,0.983-1.863,1.977-2.811,2.999c-1.03,1.114-2.067,2.25-3.116,3.41c-0.913,1.011-1.833,2.043-2.756,3.089
	c-1.106,1.25-2.214,2.505-3.342,3.805c-0.878,1.013-1.766,2.064-2.653,3.107c-1.199,1.408-2.391,2.805-3.609,4.268
	c-0.763,0.915-1.539,1.876-2.307,2.811c-4.853,5.91-9.845,12.234-14.966,18.975c-0.569,0.749-1.127,1.471-1.697,2.228
	c-1.506,1.996-3.029,4.058-4.554,6.126c-0.735,0.997-1.468,1.98-2.206,2.993c-1.5,2.054-3.015,4.156-4.532,6.272
	c-0.776,1.084-1.552,2.165-2.331,3.266c-1.533,2.163-3.075,4.355-4.625,6.58c-0.757,1.092-1.519,2.193-2.282,3.299
	c-1.591,2.306-3.187,4.632-4.794,7.008c-0.703,1.037-1.408,2.094-2.113,3.143c-1.692,2.522-3.386,5.052-5.093,7.645
	c-0.482,0.73-0.967,1.482-1.446,2.217c-8.359,12.76-16.881,26.37-25.501,40.783c-0.504,0.844-1.005,1.672-1.509,2.519
	c-1.803,3.034-3.611,6.117-5.422,9.22c-0.692,1.182-1.381,2.361-2.073,3.554c-1.749,3.018-3.5,6.07-5.254,9.151
	c-0.738,1.296-1.477,2.598-2.214,3.906c-1.743,3.089-3.486,6.196-5.232,9.345c-0.73,1.315-1.46,2.644-2.19,3.971
	c-1.784,3.238-3.568,6.49-5.351,9.794c-0.602,1.111-1.204,2.244-1.806,3.363c-1.917,3.57-3.835,7.152-5.752,10.793l-0.008,0.014
	c-11.142,21.162-22.257,43.528-33.198,66.973l-0.027,0.063c-2.557,5.48-5.104,11.015-7.64,16.612l-0.008,0.016
	c-81.223,179.332-150.366,418.395-141.765,674.006c1.402,41.613,4.81,82.783,9.827,123.274L381.25,1449.607l-6.572,411.594
	l68.534-32.498l33.459-237.488l184.093-109.052c26.841,80.88,58.524,154.275,91.531,216.868h-7.74l49.036,87.193h2.203
	c-22.366,93.727-46.072,311.576,152.292,511.713c0,0,227.297-190.172,153.161-511.713h2.53l49.035-87.193h-7.727l0.781-1.509
	c1.947-3.702,3.884-7.447,5.821-11.222c1.345-2.625,2.688-5.245,4.028-7.906c1.991-3.952,3.971-7.964,5.948-11.995
	c1.253-2.555,2.511-5.09,3.758-7.678c2.17-4.497,4.325-9.07,6.476-13.656c1.032-2.206,2.073-4.371,3.103-6.597
	c3.14-6.787,6.258-13.659,9.347-20.634l0.084-0.185c18.616-42.05,36.235-87.476,52.17-135.487l184.093,109.052l33.457,237.488
	l68.536,32.498L1516.115,1449.607z"/>
<path style="fill:#EAE325;" d="M1101.269,1786.223h-40.418h-74.64l-11.562,74.978h-51.933l-11.562-74.978h-73.695h-41.665
	c-22.366,93.727-46.072,311.576,152.292,511.713C948.086,2297.936,1175.41,2107.77,1101.269,1786.223z"/>
<path style="fill:#D34734;" d="M1516.115,1449.607l-212.792-261.037c-9.026,72.823-23.431,143.386-41.524,210.095
	c-7.754,28.589-16.186,56.471-25.163,83.519l184.06,109.031l33.457,237.488l68.536,32.498L1516.115,1449.607z"/>
<path style="fill:#D34734;" d="M635.565,1398.665c-18.093-66.708-32.498-137.271-41.524-210.095L381.25,1449.607l-6.572,411.594
	l68.534-32.498l33.459-237.488l184.057-109.031C651.752,1455.136,643.319,1427.254,635.565,1398.665z"/>
<path style="fill:#D34734;" d="M1130.468,307.572c-61.839-117.444-124.367-198.149-160.849-224.473l-0.011-0.011l-0.637-0.455
	l-0.251-0.177l-0.634-0.444l-0.188-0.128l-1.394-0.945l-0.008-0.006l-0.583-0.381l-0.294-0.191l-0.548-0.351l-0.297-0.185
	c-0.605-0.379-1.201-0.741-1.789-1.084l-0.321-0.185l-0.482-0.275l-0.033-0.019l-0.286-0.161l-0.065-0.038l-0.422-0.231
	l-0.471-0.253l-0.245-0.131l-0.441-0.229l-0.371-0.188l-0.411-0.204l-0.401-0.193l-0.395-0.188l-0.112-0.051l-0.428-0.196
	l-0.158-0.071l-0.324-0.142l-0.025-0.011l-0.417-0.18l-0.343-0.141l-0.305-0.123l-0.136-0.052l-0.308-0.123l-0.487-0.18
	l-0.204-0.076l-0.243-0.084l-0.479-0.161l-0.297-0.095h-0.003l-0.471-0.144l-0.223-0.065l-0.134-0.038l-0.411-0.112l-0.133-0.032
	l-0.188-0.046l-0.487-0.114l-0.259-0.055l-0.198-0.044l-0.039-0.008l-0.229-0.041l-0.191-0.035l-0.272-0.044l-0.188-0.03
	l-0.182-0.027h-0.006l-0.09-0.011l-0.431-0.051l-0.008-0.003l-0.114-0.008l-0.188-0.019l-0.403-0.03l-0.065-0.003l-0.169-0.008
	l-0.61-0.017l-0.722,0.022l-0.237,0.017l-0.506,0.041l-0.283,0.033l-0.482,0.062l-0.319,0.049l-0.455,0.081l-0.346,0.065
	l-0.482,0.107l-0.324,0.076l-0.509,0.133l-0.335,0.093l-0.643,0.194l-0.193,0.057l-0.853,0.289l-0.362,0.136l-0.526,0.196
	l-0.412,0.163l-0.49,0.202l-0.444,0.19l-0.471,0.207l-0.477,0.218l-0.46,0.218l-0.499,0.242l-0.43,0.215l-0.545,0.278l-0.381,0.202
	c-0.741,0.395-1.495,0.817-2.269,1.272l-0.253,0.15l-0.7,0.422l-0.318,0.194l-0.705,0.444l-0.335,0.212l-0.725,0.471l-0.283,0.185
	l-0.817,0.545l-0.164,0.114c-36.134,24.605-99.941,106.184-163.031,226.003c2.01-0.349,4.025-0.692,6.046-1.033
	c0.577-0.095,1.157-0.191,1.737-0.288c1.498-0.248,2.996-0.493,4.497-0.736c0.586-0.095,1.169-0.188,1.754-0.281
	c1.544-0.248,3.094-0.49,4.644-0.73c0.528-0.082,1.054-0.163,1.58-0.245c1.969-0.299,3.941-0.596,5.915-0.888l0.109-0.016
	c4.401-0.645,8.825-1.263,13.267-1.857l0.098-0.011c2.135-0.286,4.276-0.564,6.42-0.836l0.452-0.057
	c2.151-0.272,4.308-0.539,6.471-0.798l0.027-0.003c41.442-4.975,84.529-7.612,128.769-7.612
	C1012.131,292.181,1073.215,297.595,1130.468,307.572z"/>
<path style="fill:#D34734;" d="M1163.666,374.544c-67.634-14.157-140.256-21.571-214.983-21.571
	c-55.605,0-110.044,4.108-162.132,12.044c-8.906,1.354-17.742,2.822-26.501,4.402l-0.172,0.03c-2.119,0.382-4.235,0.771-6.346,1.166
	l-0.25,0.046c-1.996,0.376-3.987,0.757-5.978,1.144l-0.608,0.114c-1.879,0.368-3.753,0.741-5.627,1.117l-0.904,0.18
	c-2.16,0.436-4.314,0.88-6.465,1.329c-2.569,5.507-5.129,11.066-7.675,16.69c2.149-0.474,4.303-0.94,6.463-1.4l0.052-0.011
	c2.149-0.458,4.303-0.907,6.463-1.351l0.082-0.016c4.328-0.891,8.675-1.751,13.043-2.585l0.136-0.025
	c4.363-0.833,8.746-1.637,13.147-2.413l0.139-0.022c4.418-0.779,8.854-1.528,13.31-2.25l0.049-0.008
	c54.336-8.789,111.395-13.346,169.775-13.346c77.66,0,152.981,8.059,222.658,23.426
	C1168.795,385.611,1166.234,380.052,1163.666,374.544z"/>
<ellipse transform="matrix(0.7071 -0.7071 0.7071 0.7071 -249.5374 889.2767)" style="fill:#FFFFFF;" cx="948.683" cy="745.857" rx="208.06" ry="208.061"/>
<path style="fill:#356EB5;" d="M998.725,910.266l0.447-0.139c0.577-0.177,1.155-0.357,1.73-0.539l0.242-0.076
	c1.373-0.441,2.74-0.899,4.099-1.373l0.09-0.03c0.659-0.232,1.313-0.464,1.966-0.7l0.096-0.036
	c65.979-23.99,113.102-87.247,113.102-161.517c0-94.89-76.922-171.815-171.815-171.815c-75.024,0-138.811,48.085-162.236,115.118
	l-0.022,0.063c-0.474,1.362-0.934,2.729-1.376,4.107l-0.076,0.24c-0.18,0.563-0.357,1.127-0.531,1.694l-0.158,0.52l-0.45,1.501
	l-0.149,0.506c-0.191,0.659-0.379,1.318-0.564,1.98l-0.065,0.234c-0.354,1.285-0.694,2.576-1.021,3.873l-0.109,0.441l-0.292,1.19
	l-0.106,0.441c-0.156,0.659-0.308,1.321-0.458,1.982l-0.163,0.73l-0.212,0.975l-0.191,0.896l-0.264,1.291l-0.229,1.152l-0.169,0.891
	l-0.18,0.978l-0.152,0.839c-0.101,0.561-0.196,1.122-0.292,1.683l-0.103,0.634l-0.199,1.264l-0.103,0.661
	c-0.09,0.594-0.177,1.19-0.262,1.784l-0.063,0.468l-0.201,1.498l-0.068,0.531c-0.079,0.624-0.155,1.25-0.226,1.876l-0.014,0.134
	c-0.071,0.618-0.139,1.236-0.201,1.857l-0.046,0.449c-0.057,0.591-0.114,1.182-0.169,1.773l-0.019,0.207
	c-0.057,0.659-0.112,1.321-0.163,1.983l-0.027,0.376c-0.044,0.577-0.084,1.157-0.12,1.735l-0.022,0.321
	c-0.044,0.67-0.082,1.34-0.114,2.01l-0.013,0.269c-0.03,0.591-0.055,1.182-0.079,1.776l-0.016,0.389
	c-0.024,0.675-0.046,1.351-0.062,2.029l-0.003,0.12c-0.016,0.626-0.027,1.256-0.036,1.884l-0.008,0.444
	c-0.006,0.67-0.011,1.34-0.011,2.013c0,14.677,1.841,28.924,5.306,42.526l0.245,0.956c0.438,1.675,0.899,3.342,1.387,4.998
	l0.359,1.207c0.882,2.925,1.841,5.82,2.874,8.68c0.324,0.894,0.651,1.789,0.988,2.677c1.869,4.914,3.958,9.715,6.251,14.4
	c0.305,0.621,0.613,1.239,0.923,1.855c0.305,0.605,0.613,1.206,0.924,1.808c0.661,1.272,1.34,2.539,2.034,3.794
	c0.294,0.534,0.591,1.068,0.894,1.599c0.389,0.692,0.787,1.381,1.188,2.067l0.863,1.46c0.431,0.722,0.869,1.438,1.307,2.152
	c0.989,1.599,1.999,3.175,3.034,4.739c0.517,0.776,1.037,1.547,1.566,2.315c4.421,6.428,9.263,12.54,14.493,18.292
	c1.386,1.528,2.8,3.029,4.24,4.502c0.953,0.978,1.92,1.945,2.898,2.898c1.972,1.926,3.99,3.805,6.052,5.635
	c0.515,0.458,1.03,0.91,1.549,1.359c1.041,0.901,2.089,1.789,3.151,2.663c0.528,0.438,1.062,0.872,1.599,1.305
	c1.07,0.861,2.152,1.713,3.244,2.549c0.547,0.419,1.094,0.833,1.648,1.248c1.1,0.822,2.214,1.634,3.336,2.435
	c0.561,0.398,1.125,0.795,1.691,1.188c1.134,0.784,2.277,1.558,3.429,2.315c1.152,0.757,2.315,1.504,3.486,2.233
	c1.171,0.733,2.351,1.449,3.54,2.154c1.19,0.703,2.392,1.392,3.598,2.067c1.814,1.014,3.647,1.997,5.499,2.945
	c1.234,0.632,2.478,1.25,3.729,1.855c3.756,1.808,7.588,3.486,11.49,5.025c1.95,0.768,3.92,1.503,5.902,2.203
	c1.986,0.697,3.988,1.362,6.006,1.988c1.345,0.419,2.696,0.823,4.055,1.207c0.678,0.193,1.362,0.381,2.043,0.566
	c1.229,0.333,2.465,0.651,3.704,0.956c0.828,0.204,1.656,0.403,2.487,0.596c0.694,0.161,1.389,0.316,2.083,0.466
	c1.392,0.305,2.789,0.591,4.195,0.861c10.532,2.016,21.405,3.072,32.525,3.072c0.653,0,1.307-0.006,1.961-0.011l0.553-0.008
	c0.572-0.008,1.141-0.019,1.711-0.033l0.275-0.005c0.651-0.017,1.299-0.039,1.947-0.063l0.506-0.019
	c0.537-0.022,1.073-0.046,1.613-0.071l0.401-0.019c0.643-0.033,1.285-0.071,1.928-0.112l0.452-0.03
	c0.526-0.033,1.051-0.071,1.577-0.109l0.49-0.038c0.635-0.049,1.269-0.098,1.901-0.155l0.362-0.033
	c0.531-0.048,1.059-0.1,1.591-0.152l0.566-0.057c0.551-0.057,1.101-0.114,1.651-0.177l0.463-0.055
	c0.551-0.063,1.098-0.128,1.648-0.199l0.648-0.082l1.329-0.177l0.607-0.084c0.572-0.079,1.141-0.164,1.713-0.25l0.725-0.112
	l1.199-0.19l0.708-0.117c0.539-0.088,1.076-0.18,1.613-0.276l0.964-0.177l0.823-0.152l1-0.188l0.828-0.166
	c0.564-0.112,1.128-0.226,1.692-0.343l0.722-0.153l1.081-0.237l0.537-0.12c0.776-0.174,1.552-0.354,2.326-0.539l0.194-0.046
	l1.296-0.316l0.281-0.071c1.353-0.337,2.701-0.694,4.044-1.065l0.09-0.027c0.659-0.182,1.313-0.368,1.966-0.558l0.523-0.152
	C997.699,910.573,998.213,910.421,998.725,910.266z"/>
<path style="fill:#DA802E;" d="M922.716,1861.201l-11.562-74.978h-73.695c-6.025,76.08,7.844,189.191,110.626,292.87
	c0,0,126.751-110.335,112.765-292.87h-74.64l-11.562,74.978H922.716z"/>
<path style="fill:#AA3324;" d="M1472.741,1811.002l-33.457-253.716l-177.485-158.622c-7.754,28.589-16.186,56.471-25.163,83.519
	l184.06,109.031l33.457,237.488l68.536,32.498L1472.741,1811.002z"/>
<path style="fill:#AA3324;" d="M458.083,1557.286l-33.46,253.716l-49.945,50.198l68.534-32.498l33.459-237.488l184.057-109.031
	c-8.977-27.048-17.409-54.93-25.163-83.519L458.083,1557.286z"/>
<path style="fill:#F7FCFF;" d="M1164.704,605.717c14.648,56.756,28.331,113.829,37.994,171.67
	c19.664,117.713,27.062,237.603,20.231,356.792c-4.38,78.284-14.582,156.642-26.283,236.541c1.3-8.873,9.726-20.16,13.449-28.465
	c4.564-10.191,8.917-20.475,13.048-30.85c7.991-20.049,15.171-40.421,21.547-61.041c41.222-133.352,48.442-276.144,27.105-413.767
	c-21.74-140.223-72.303-279.075-153.749-395.8c13.438,25.319,16.823,51.299,24.011,78.701
	C1149.596,548.242,1157.279,576.945,1164.704,605.717z"/>
<path style="fill:#C5DDF1;" d="M1012.502,1615.71l-12.848,83.32h145.456l0.768-1.46l0.411-0.784
	c0.645-1.228,1.288-2.459,1.931-3.696l0.422-0.812c0.651-1.253,1.302-2.508,1.95-3.769l0.368-0.714
	c0.678-1.321,1.357-2.642,2.032-3.971l0.161-0.313c0.683-1.345,1.37-2.696,2.053-4.05l0.172-0.341
	c0.654-1.296,1.307-2.598,1.961-3.906l0.449-0.901c0.635-1.269,1.27-2.544,1.901-3.824l0.397-0.801
	c0.646-1.305,1.288-2.612,1.931-3.927l0.387-0.79c0.626-1.277,1.253-2.56,1.876-3.848l0.313-0.648
	c0.616-1.267,1.229-2.538,1.841-3.816l0.354-0.736c0.632-1.318,1.264-2.639,1.895-3.965l0.433-0.915
	c0.637-1.34,1.272-2.682,1.906-4.028l0.356-0.76c0.649-1.38,1.3-2.764,1.945-4.156l0.278-0.599c0.596-1.277,1.19-2.56,1.784-3.846
	l0.33-0.711c0.632-1.37,1.261-2.745,1.89-4.124l0.387-0.844c0.613-1.345,1.225-2.696,1.838-4.047l0.482-1.065
	c0.602-1.338,1.206-2.68,1.808-4.023l0.387-0.866c0.607-1.362,1.217-2.729,1.822-4.099l0.101-0.226L1012.502,1615.71z"/>
<path style="fill:#C5DDF1;" d="M884.338,1612.3l-43.836-1.282c-95.435-149.041-189.978-399.773-191.806-666.394
	c-1.444-210.359,57.255-406.966,130.212-563.469l-0.049,0.008c-4.456,0.722-8.893,1.471-13.31,2.25l-0.139,0.022
	c-4.401,0.776-8.784,1.58-13.147,2.413l-0.136,0.025c-4.369,0.833-8.715,1.694-13.043,2.585l-0.082,0.016
	c-2.16,0.444-4.314,0.893-6.463,1.351l-0.052,0.011c-2.152,0.458-4.301,0.924-6.441,1.397
	c-81.231,179.332-150.388,418.378-141.787,674.009c1.402,41.625,4.761,82.827,9.783,123.329
	c9.026,72.823,23.43,143.386,41.524,210.095c7.754,28.589,16.187,56.471,25.163,83.519c26.833,80.861,58.53,154.264,91.529,216.847
	h145.453L884.338,1612.3z"/>
<path style="fill:#C5DDF1;" d="M733.699,374.544c2.151-0.449,4.306-0.893,6.465-1.329l0.904-0.18
	c1.874-0.376,3.748-0.749,5.627-1.117l0.608-0.114c1.991-0.387,3.982-0.768,5.978-1.144l0.25-0.046
	c2.111-0.395,4.227-0.784,6.346-1.166l0.172-0.03c8.759-1.58,17.594-3.048,26.501-4.402c10.894-22.663,22.063-44.432,33.364-65.225
	l-0.027,0.003c-2.163,0.259-4.32,0.526-6.471,0.798l-0.452,0.057c-2.144,0.272-4.284,0.55-6.42,0.836l-0.098,0.011
	c-4.442,0.594-8.866,1.212-13.267,1.857l-0.109,0.016c-1.975,0.292-3.946,0.589-5.915,0.888c-0.526,0.082-1.051,0.163-1.58,0.245
	c-1.55,0.239-3.1,0.482-4.644,0.73c-0.585,0.093-1.171,0.185-1.754,0.281c-1.501,0.243-2.999,0.487-4.497,0.736
	c-0.58,0.098-1.16,0.193-1.737,0.288c-2.018,0.341-4.033,0.681-6.041,1.033c-11.297,21.456-22.568,44.141-33.658,67.945h0.008
	L733.699,374.544z"/>
<polygon style="fill:#605E6F;" points="911.154,1786.223 897.711,1699.03 752.257,1699.03 744.555,1699.03 793.591,1786.223 
	795.794,1786.223 837.459,1786.223 "/>
<polygon style="fill:#605E6F;" points="999.654,1699.03 986.211,1786.223 1060.85,1786.223 1101.269,1786.223 1103.777,1786.223 
	1152.812,1699.03 1145.11,1699.03 "/>
<path style="fill:#AA3324;" d="M766.897,307.572c2.01-0.349,4.025-0.692,6.046-1.033c0.577-0.095,1.157-0.191,1.737-0.288
	c1.498-0.248,2.996-0.493,4.497-0.736c0.586-0.095,1.169-0.188,1.754-0.281c1.544-0.248,3.094-0.49,4.644-0.73
	c0.528-0.082,1.054-0.163,1.58-0.245c1.969-0.299,3.941-0.596,5.915-0.888l0.109-0.016c4.401-0.645,8.825-1.263,13.267-1.857
	l0.098-0.011c2.135-0.286,4.276-0.564,6.42-0.836l0.452-0.057c2.151-0.272,4.308-0.539,6.471-0.798l0.027-0.003
	c51.958-95.616,106.625-170.586,149.705-216.694l-0.011-0.011l-0.637-0.455l-0.251-0.177l-0.634-0.444l-0.188-0.128l-1.394-0.945
	l-0.008-0.006l-0.583-0.381l-0.294-0.191l-0.548-0.351l-0.297-0.185c-0.605-0.379-1.201-0.741-1.789-1.084l-0.321-0.185
	l-0.482-0.275l-0.033-0.019l-0.286-0.161l-0.065-0.038l-0.422-0.231l-0.471-0.253l-0.245-0.131l-0.441-0.229l-0.371-0.188
	l-0.411-0.204l-0.401-0.193l-0.395-0.188l-0.112-0.051l-0.428-0.196l-0.158-0.071l-0.324-0.142l-0.025-0.011l-0.417-0.18
	l-0.343-0.141l-0.305-0.123l-0.136-0.052l-0.308-0.123l-0.487-0.18l-0.204-0.076l-0.243-0.084l-0.479-0.161l-0.297-0.095h-0.003
	l-0.471-0.144l-0.223-0.065l-0.134-0.038l-0.411-0.112l-0.133-0.032l-0.188-0.046l-0.487-0.114l-0.259-0.055l-0.198-0.044
	l-0.039-0.008l-0.229-0.041l-0.191-0.035l-0.272-0.044l-0.188-0.03l-0.182-0.027h-0.006l-0.09-0.011l-0.431-0.051l-0.008-0.003
	l-0.114-0.008l-0.188-0.019l-0.403-0.03l-0.065-0.003l-0.169-0.008l-0.61-0.017l-0.722,0.022l-0.237,0.017l-0.506,0.041
	l-0.283,0.033l-0.482,0.062l-0.319,0.049l-0.455,0.081l-0.346,0.065l-0.482,0.107l-0.324,0.076l-0.509,0.133l-0.335,0.093
	l-0.643,0.194l-0.193,0.057l-0.853,0.289l-0.362,0.136l-0.526,0.196l-0.412,0.163l-0.49,0.202l-0.444,0.19l-0.471,0.207
	l-0.477,0.218l-0.46,0.218l-0.499,0.242l-0.43,0.215l-0.545,0.278l-0.381,0.202c-0.741,0.395-1.495,0.817-2.269,1.272l-0.253,0.15
	l-0.7,0.422l-0.318,0.194l-0.705,0.444l-0.335,0.212l-0.725,0.471l-0.283,0.185l-0.817,0.545l-0.164,0.114
	C893.794,106.173,829.986,187.753,766.897,307.572z"/>
<path style="fill:#AA3324;" d="M778.907,381.155c2.533-5.428,5.08-10.807,7.643-16.137c-8.903,1.357-17.739,2.822-26.501,4.402
	l-0.172,0.03c-2.119,0.382-4.235,0.771-6.346,1.166l-0.25,0.046c-1.996,0.376-3.987,0.757-5.978,1.144l-0.608,0.114
	c-1.879,0.368-3.753,0.741-5.627,1.117l-0.904,0.18c-2.16,0.436-4.314,0.88-6.465,1.329c-2.569,5.507-5.129,11.066-7.675,16.69
	c2.149-0.474,4.303-0.94,6.463-1.4l0.052-0.011c2.149-0.458,4.303-0.907,6.463-1.351l0.082-0.016
	c4.328-0.891,8.675-1.751,13.043-2.585l0.136-0.025c4.363-0.833,8.746-1.637,13.147-2.413l0.139-0.022
	c4.418-0.779,8.854-1.528,13.31-2.25L778.907,381.155z"/>
<path style="fill:#C5DDF1;" d="M948.683,567.775c5.856,0,10.603-4.747,10.603-10.603s-4.747-10.603-10.603-10.603
	c-5.856,0-10.603,4.747-10.603,10.603S942.826,567.775,948.683,567.775z"/>
<path style="fill:#C5DDF1;" d="M948.683,923.938c-5.856,0-10.603,4.747-10.603,10.603s4.747,10.603,10.603,10.603
	c5.856,0,10.603-4.747,10.603-10.603S954.538,923.938,948.683,923.938z"/>
<circle style="fill:#C5DDF1;" cx="1137.367" cy="745.857" r="10.603"/>
<path style="fill:#C5DDF1;" d="M759.998,735.254c-5.856,0-10.603,4.747-10.603,10.603s4.747,10.603,10.603,10.603
	c5.856,0,10.603-4.747,10.603-10.603S765.853,735.254,759.998,735.254z"/>
<path style="fill:#C5DDF1;" d="M1089.601,619.934c4.14-4.143,4.14-10.854,0-14.996c-4.14-4.14-10.853-4.14-14.993,0
	c-4.142,4.143-4.142,10.854,0,14.996C1078.747,624.074,1085.461,624.074,1089.601,619.934z"/>
<path style="fill:#C5DDF1;" d="M807.767,871.779c-4.143,4.142-4.143,10.854,0,14.996c4.14,4.14,10.853,4.14,14.993,0
	c4.139-4.142,4.139-10.853,0-14.996C818.62,867.639,811.907,867.639,807.767,871.779z"/>
<path style="fill:#C5DDF1;" d="M1074.607,871.779c-4.142,4.142-4.142,10.854,0,14.996c4.14,4.14,10.854,4.14,14.993,0
	c4.14-4.142,4.14-10.853,0-14.996C1085.461,867.639,1078.747,867.639,1074.607,871.779z"/>
<path style="fill:#C5DDF1;" d="M822.76,619.934c4.139-4.143,4.139-10.854,0-14.996c-4.14-4.14-10.854-4.14-14.993,0
	c-4.143,4.143-4.143,10.854,0,14.996C811.907,624.074,818.62,624.074,822.76,619.934z"/>
<path style="fill:#24488E;" d="M1019.771,846.583c-94.89,0-171.815-76.922-171.815-171.815c0-29.147,7.283-56.588,20.089-80.637
	c-41.066,21.873-72.216,59.916-84.924,105.64l-0.065,0.234c-0.354,1.285-0.694,2.576-1.021,3.873l-0.109,0.441l-0.292,1.19
	l-0.106,0.441c-0.156,0.659-0.308,1.321-0.458,1.982l-0.163,0.73l-0.212,0.975l-0.191,0.896l-0.264,1.291l-0.229,1.152l-0.169,0.891
	l-0.18,0.978l-0.152,0.839c-0.101,0.561-0.196,1.122-0.292,1.683l-0.103,0.634l-0.199,1.264l-0.103,0.661
	c-0.09,0.594-0.177,1.19-0.262,1.784l-0.063,0.468l-0.201,1.498l-0.068,0.531c-0.079,0.624-0.155,1.25-0.226,1.876l-0.014,0.134
	c-0.071,0.618-0.139,1.236-0.201,1.857l-0.046,0.449c-0.057,0.591-0.114,1.182-0.169,1.773l-0.019,0.207
	c-0.057,0.659-0.112,1.321-0.163,1.983l-0.027,0.376c-0.044,0.577-0.084,1.157-0.12,1.735l-0.022,0.321
	c-0.044,0.67-0.082,1.34-0.114,2.01l-0.013,0.269c-0.03,0.591-0.055,1.182-0.079,1.776l-0.016,0.389
	c-0.024,0.675-0.046,1.351-0.062,2.029l-0.003,0.12c-0.016,0.626-0.027,1.256-0.036,1.884l-0.008,0.444
	c-0.006,0.67-0.011,1.34-0.011,2.013c0,14.677,1.841,28.924,5.306,42.526l0.245,0.956c0.438,1.675,0.899,3.342,1.387,4.998
	l0.359,1.207c0.882,2.925,1.841,5.82,2.874,8.68c0.324,0.894,0.651,1.789,0.988,2.677c1.869,4.914,3.958,9.715,6.251,14.4
	c0.305,0.621,0.613,1.239,0.923,1.855c0.305,0.605,0.613,1.206,0.924,1.808c0.661,1.272,1.34,2.539,2.034,3.794
	c0.294,0.534,0.591,1.068,0.894,1.599c0.389,0.692,0.787,1.381,1.188,2.067l0.863,1.46c0.431,0.722,0.869,1.438,1.307,2.152
	c0.989,1.599,1.999,3.175,3.034,4.739c0.517,0.776,1.037,1.547,1.566,2.315c4.421,6.428,9.263,12.54,14.493,18.292
	c1.386,1.528,2.8,3.029,4.24,4.502c0.953,0.978,1.92,1.945,2.898,2.898c1.972,1.926,3.99,3.805,6.052,5.635
	c0.515,0.458,1.03,0.91,1.549,1.359c1.041,0.901,2.089,1.789,3.151,2.663c0.528,0.438,1.062,0.872,1.599,1.305
	c1.07,0.861,2.152,1.713,3.244,2.549c0.547,0.419,1.094,0.833,1.648,1.248c1.1,0.822,2.214,1.634,3.336,2.435
	c0.561,0.398,1.125,0.795,1.691,1.188c1.134,0.784,2.277,1.558,3.429,2.315c1.152,0.757,2.315,1.504,3.486,2.233
	c1.171,0.733,2.351,1.449,3.54,2.154c1.19,0.703,2.392,1.392,3.598,2.067c1.814,1.014,3.647,1.997,5.499,2.945
	c1.234,0.632,2.478,1.25,3.729,1.855c3.756,1.808,7.588,3.486,11.49,5.025c1.95,0.768,3.92,1.503,5.902,2.203
	c1.986,0.697,3.988,1.362,6.006,1.988c1.345,0.419,2.696,0.823,4.055,1.207c0.678,0.193,1.362,0.381,2.043,0.566
	c1.229,0.333,2.465,0.651,3.704,0.956c0.828,0.204,1.656,0.403,2.487,0.596c0.694,0.161,1.389,0.316,2.083,0.466
	c1.392,0.305,2.789,0.591,4.195,0.861c10.532,2.016,21.405,3.072,32.525,3.072c0.653,0,1.307-0.006,1.961-0.011l0.553-0.008
	c0.572-0.008,1.141-0.019,1.711-0.033l0.275-0.005c0.651-0.017,1.299-0.039,1.947-0.063l0.506-0.019
	c0.537-0.022,1.073-0.046,1.613-0.071l0.401-0.019c0.643-0.033,1.285-0.071,1.928-0.112l0.452-0.03
	c0.526-0.033,1.051-0.071,1.577-0.109l0.49-0.038c0.635-0.049,1.269-0.098,1.901-0.155l0.362-0.033
	c0.531-0.048,1.059-0.1,1.591-0.152l0.566-0.057c0.551-0.057,1.101-0.114,1.651-0.177l0.463-0.055
	c0.551-0.063,1.098-0.128,1.648-0.199l0.648-0.082l1.329-0.177l0.607-0.084c0.572-0.079,1.141-0.164,1.713-0.25l0.725-0.112
	l1.199-0.19l0.708-0.117c0.539-0.088,1.076-0.18,1.613-0.276l0.964-0.177l0.823-0.152l1-0.188l0.828-0.166
	c0.564-0.112,1.128-0.226,1.692-0.343l0.722-0.153l1.081-0.237l0.537-0.12c0.776-0.174,1.552-0.354,2.326-0.539l0.194-0.046
	l1.296-0.316l0.281-0.071c1.353-0.337,2.701-0.694,4.044-1.065l0.09-0.027c45.756-12.694,83.829-43.852,105.713-84.946
	C1076.359,839.3,1048.922,846.583,1019.771,846.583z"/>
<polygon style="fill:#AA3324;" points="1018.875,1101.489 878.49,1101.489 859.253,1449.607 884.338,1612.3 897.711,1699.03 
	911.154,1786.223 922.716,1861.201 974.649,1861.201 986.211,1786.223 999.654,1699.03 1012.502,1615.71 1038.111,1449.607 "/>
<polygon style="fill:#D34734;" points="933.052,1856.63 964.313,1856.63 1002.509,1451.314 1015.41,1108.507 881.955,1108.507 
	894.857,1451.314 "/>
</svg>
